<svg width="28" height="24" viewBox="0 0 28 24" fill="none" xmlns="http://www.w3.org/2000/svg">
<path d="M22.5348 24H5.24064C3.03209 24 1.23529 22.1238 1.23529 19.8176V17.4723C1.23529 17.1596 1.49733 16.886 1.79679 16.886H1.83422C2.05882 16.886 2.28342 17.0423 2.35829 17.2769C2.50802 17.785 3.55615 18.3713 4.97861 18.3713C6.2139 18.3713 7.07487 17.9414 7.4492 17.5505C7.7861 17.1205 8.31016 16.886 8.90909 16.886H9.99465C10.5561 16.886 11.0802 17.1205 11.4545 17.5505C11.7914 17.9805 12.6898 18.3713 13.9251 18.3713C15.123 18.3713 16.0214 17.9414 16.3957 17.5505C16.7326 17.1205 17.2567 16.886 17.8556 16.886H18.754C19.3155 16.886 19.8396 17.1205 20.2139 17.5505C20.5508 17.9805 21.4492 18.3713 22.6845 18.3713C24.0695 18.3713 25.1176 17.8241 25.2674 17.2769C25.3422 17.0423 25.5668 16.886 25.7914 16.886H25.9786C26.2781 16.886 26.5401 17.1596 26.5401 17.4723V19.8176C26.5401 22.1238 24.7433 24 22.5348 24ZM2.35829 18.8795V19.8176C2.35829 21.4593 3.63102 22.8274 5.24064 22.8274H22.5348C24.107 22.8274 25.4171 21.4984 25.4171 19.8176V18.7231C24.7433 19.2313 23.7326 19.5049 22.6096 19.5049C21.2246 19.5049 19.9519 19.0358 19.3155 18.2541C19.2032 18.0977 18.9786 18.0195 18.7166 18.0195H17.8182C17.5936 18.0195 17.369 18.0977 17.2193 18.2541C16.5829 19.0358 15.3102 19.5049 13.9251 19.5049C12.5401 19.5049 11.2674 19.0358 10.631 18.2541C10.5187 18.0977 10.2941 18.0195 10.0321 18.0195H8.94652C8.72193 18.0195 8.49733 18.0977 8.34759 18.2541C7.71123 19.0358 6.4385 19.5049 5.05348 19.5049C3.96791 19.544 3.06952 19.3094 2.35829 18.8795ZM25.3422 14.9316H2.73262C1.27273 14.9316 0.0748662 13.6417 0.0748662 12.0391C0.0748662 11.2573 0.336898 10.5537 0.823529 10.0065C1.34759 9.45928 1.98396 9.14658 2.69519 9.14658H18.0428C18.2299 9.14658 18.4171 9.26384 18.5294 9.4202L19.3155 10.7883L21.0374 9.26384C21.1497 9.18567 21.262 9.10749 21.4118 9.10749H25.3422C26.8021 9.10749 28 10.3974 28 12C28 12.7818 27.738 13.4853 27.2513 14.0326C26.7273 14.6189 26.0535 14.9316 25.3422 14.9316ZM2.73262 10.2801C2.32086 10.2801 1.94652 10.4365 1.64706 10.7883C1.34759 11.101 1.19786 11.57 1.19786 12.0391C1.19786 12.9772 1.87166 13.759 2.73262 13.759H25.3422C25.754 13.759 26.1283 13.6026 26.4278 13.2508C26.7273 12.9381 26.877 12.4691 26.877 12C26.877 11.0619 26.2032 10.2801 25.3422 10.2801H21.6364L19.5775 12.1173C19.4652 12.2345 19.2781 12.2736 19.1283 12.2345C18.9786 12.1954 18.8289 12.1173 18.754 11.9609L17.7433 10.2801H2.73262ZM19.2032 12.2736C19.1658 12.2736 19.1283 12.2736 19.1283 12.2736C18.9786 12.2345 18.8289 12.1564 18.754 12L17.7433 10.2801H2.80749C2.50802 10.2801 2.24599 10.0065 2.24599 9.69381V7.03583C2.24599 6.72313 2.50802 6.44951 2.80749 6.44951H25.0053C25.3048 6.44951 25.5668 6.72313 25.5668 7.03583V9.69381C25.5668 10.0065 25.3048 10.2801 25.0053 10.2801H21.6364L19.5775 12.1173C19.4652 12.2345 19.3529 12.2736 19.2032 12.2736ZM3.36898 9.10749H18.0428C18.2299 9.10749 18.4171 9.22476 18.5294 9.38111L19.3155 10.7492L21.0374 9.22476C21.1497 9.14658 21.262 9.0684 21.4118 9.0684H24.4064V7.58306H3.36898V9.10749ZM22.6096 19.544C21.0374 19.544 19.6898 18.9577 19.1283 18.0586H17.369C16.8075 18.9577 15.4599 19.544 13.8877 19.544C12.3155 19.544 10.9679 18.9577 10.4064 18.0586H8.45989C7.8984 18.9577 6.5508 19.544 4.97861 19.544C3.33155 19.544 1.94652 18.9186 1.45989 17.9805C0.59893 17.7068 0 16.886 0 15.9479C0 14.9707 0.673796 14.1107 1.57219 13.8762C1.64706 13.8371 1.72192 13.8371 1.79679 13.8371H25.9786C27.1016 13.8371 28 14.7752 28 15.9479C28 17.0814 27.139 18.0195 26.0909 18.0586C25.5294 18.9577 24.1818 19.544 22.6096 19.544ZM17.0321 16.886H19.4652C19.6898 16.886 19.9144 17.0423 19.9893 17.2769C20.139 17.785 21.1872 18.3713 22.6096 18.3713C23.9947 18.3713 25.0428 17.8241 25.1925 17.2769C25.2674 17.0423 25.492 16.886 25.7166 16.886H25.9786C26.4652 16.886 26.877 16.456 26.877 15.9479C26.877 15.4397 26.4652 15.0098 25.9786 15.0098H1.94652C1.90909 15.0098 1.90909 15.0098 1.87166 15.0098C1.42246 15.0879 1.08556 15.4788 1.08556 15.9479C1.08556 16.4169 1.42246 16.8078 1.87166 16.886C1.94652 16.886 1.98396 16.9251 2.02139 16.9251C2.17112 17.0033 2.32086 17.1205 2.35829 17.2769C2.50802 17.785 3.55615 18.3713 4.97861 18.3713C6.36364 18.3713 7.41176 17.8241 7.5615 17.2769C7.63636 17.0423 7.86096 16.886 8.08556 16.886H10.7059C10.9305 16.886 11.1551 17.0423 11.2299 17.2769C11.3797 17.785 12.4278 18.3713 13.8128 18.3713C15.1979 18.3713 16.246 17.8241 16.3957 17.2769C16.5829 17.0423 16.7701 16.886 17.0321 16.886ZM25.9786 7.66124H1.79679C1.49733 7.66124 1.23529 7.38762 1.23529 7.07492V6.37134C1.23529 2.85342 3.96791 0 7.3369 0H20.4011C23.7701 0 26.5027 2.85342 26.5027 6.37134V7.07492C26.5401 7.38762 26.2781 7.66124 25.9786 7.66124ZM2.35829 6.4886H25.4171V6.37134C25.4171 3.51792 23.1711 1.17264 20.4385 1.17264H7.37433C4.64171 1.17264 2.39572 3.51792 2.39572 6.37134V6.4886H2.35829ZM7.1123 4.72964L8.53476 3.2443C8.75936 3.00977 8.75936 2.65798 8.53476 2.42345C8.31016 2.18893 7.97326 2.18893 7.74866 2.42345L6.3262 3.90879C6.1016 4.14332 6.1016 4.49511 6.3262 4.72964C6.4385 4.84691 6.58824 4.88599 6.73797 4.88599C6.85027 4.88599 7 4.80782 7.1123 4.72964ZM13.5882 4.72964L15.0107 3.2443C15.2353 3.00977 15.2353 2.65798 15.0107 2.42345C14.7861 2.18893 14.4492 2.18893 14.2246 2.42345L12.8021 3.90879C12.5775 4.14332 12.5775 4.49511 12.8021 4.72964C12.9144 4.84691 13.0642 4.88599 13.2139 4.88599C13.3262 4.88599 13.4759 4.80782 13.5882 4.72964ZM19.8396 4.72964L21.262 3.2443C21.4866 3.00977 21.4866 2.65798 21.262 2.42345C21.0374 2.18893 20.7005 2.18893 20.4759 2.42345L19.0535 3.90879C18.8289 4.14332 18.8289 4.49511 19.0535 4.72964C19.1658 4.84691 19.3155 4.88599 19.4652 4.88599C19.5775 4.88599 19.7273 4.80782 19.8396 4.72964Z" fill="#29225C"/>
</svg>
