<svg width="718" height="618" viewBox="0 0 718 618" fill="none" xmlns="http://www.w3.org/2000/svg">
<path fill-rule="evenodd" clip-rule="evenodd" d="M192.333 0.666504C138.501 0.666504 89.8215 14.1208 54.4885 46.9298C18.8205 80.0505 0.666504 129.235 0.666504 192.333V425.666C0.666504 488.766 18.8205 537.95 54.4885 571.07C89.8215 603.88 138.501 617.333 192.333 617.333H525.666C579.5 617.333 628.18 603.88 663.51 571.07C699.18 537.95 717.333 488.766 717.333 425.666V192.333C717.333 129.235 699.18 80.0505 663.51 46.9298C628.18 14.1208 579.5 0.666504 525.666 0.666504H192.333ZM599.95 187.743C610.873 179.301 612.886 163.6 604.443 152.675C596.003 141.749 580.303 139.737 569.376 148.179L384.473 291.053C369.47 302.65 348.527 302.65 333.52 291.053L148.62 148.179C137.694 139.737 121.994 141.749 113.551 152.675C105.109 163.6 107.122 179.301 118.048 187.743L302.95 330.62C335.963 356.126 382.033 356.126 415.046 330.62L599.95 187.743Z" fill="#F1EFF4"/>
</svg>
