<svg width="667" height="668" viewBox="0 0 667 668" fill="none" xmlns="http://www.w3.org/2000/svg">
<path d="M473.667 0.666504H194.333C72.9998 0.666504 0.666504 72.9998 0.666504 194.333V473.333C0.666504 595 72.9998 667.333 194.333 667.333H473.333C594.666 667.333 667 595 667 473.667V194.333C667.333 72.9998 595 0.666504 473.667 0.666504ZM334 463.333C262.666 463.333 204.666 405.333 204.666 334C204.666 262.666 262.666 204.666 334 204.666C405.333 204.666 463.333 262.666 463.333 334C463.333 405.333 405.333 463.333 334 463.333ZM531.333 163.333C529.666 167.333 527.333 171 524.333 174.333C521 177.333 517.333 179.666 513.333 181.333C509.333 183 505 184 500.666 184C491.666 184 483.333 180.666 477 174.333C474 171 471.666 167.333 470 163.333C468.333 159.333 467.333 155 467.333 150.666C467.333 146.333 468.333 142 470 138C471.666 133.666 474 130.333 477 127C484.667 119.333 496.333 115.666 507 118C509.333 118.333 511.333 119 513.333 120C515.333 120.666 517.333 121.667 519.333 123C521 124 522.666 125.666 524.333 127C527.333 130.333 529.666 133.666 531.333 138C533 142 534 146.333 534 150.666C534 155 533 159.333 531.333 163.333Z" fill="#F1EFF4"/>
</svg>
