<svg width="700" height="584" viewBox="0 0 700 584" fill="none" xmlns="http://www.w3.org/2000/svg">
<path d="M640.322 5.14984C640.322 5.14984 705.077 -20.1002 699.68 41.2213C697.882 66.4717 681.693 154.847 669.102 250.437L625.932 533.598C625.932 533.598 622.335 575.08 589.957 582.295C557.578 589.508 509.013 557.045 500.018 549.83C492.823 544.42 365.113 463.258 320.143 423.58C307.552 412.758 293.162 391.115 321.942 365.865L510.812 185.508C532.397 163.865 553.982 113.365 464.043 174.687L212.218 346.027C212.218 346.027 183.438 364.062 129.477 347.83L12.557 311.758C12.557 311.758 -30.6132 284.705 43.1358 257.65C223.012 172.882 444.258 86.31 640.322 5.14984Z" fill="#F1EFF4"/>
</svg>
